<?xml version="1.0" encoding="iso-8859-1"?>
<!-- Uploaded to: SVG Repo, www.svgrepo.com, Generator: SVG Repo Mixer Tools -->
<svg fill="#2bcec3" height="800px" width="800px" version="1.1" id="Layer_1" xmlns="http://www.w3.org/2000/svg" xmlns:xlink="http://www.w3.org/1999/xlink" 
	 viewBox="0 0 512.027 512.027" xml:space="preserve">
<g>
	<g>
		<path d="M493.813,48.795l-25.634-44.51c-1.135-1.971-3.004-3.405-5.205-3.985c-2.185-0.606-4.523-0.282-6.485,0.87l-93.841,54.664
			c-3.627,2.116-5.171,6.545-3.652,10.462l12.16,31.206c12.86,26.786,29.926,117.112,29.926,158.438
			c0,104.986-55.262,170.351-144.273,170.743c-0.648-0.085-1.323-0.085-1.963,0c-88.789-0.58-143.898-65.911-143.898-170.743
			c0-41.327,17.058-131.652,30.191-159.044l11.895-30.601c1.519-3.917-0.026-8.346-3.661-10.462L55.541,1.17
			c-1.971-1.152-4.309-1.476-6.485-0.87c-2.202,0.58-4.07,2.014-5.205,3.985l-25.634,44.51c-2.347,4.07-0.956,9.276,3.115,11.639
			l34.765,20.164c-14.857,44.305-30.481,125.158-30.481,175.343c0,153.173,92.595,256.085,230.4,256.085
			s230.4-102.912,230.4-256.085c0-50.185-15.633-131.038-30.481-175.343l34.765-20.164C494.76,58.07,496.159,52.865,493.813,48.795z
			 M96.381,82.774c-3.337-3.328-3.337-8.738,0-12.066c3.328-3.336,8.738-3.336,12.066,0c3.337,3.328,3.337,8.738,0,12.066
			C105.119,86.111,99.709,86.111,96.381,82.774z M116.981,407.041c-3.328,3.337-8.738,3.337-12.066,0
			c-3.337-3.328-3.337-8.738,0-12.066c3.328-3.337,8.738-3.337,12.066,0C120.317,398.303,120.317,403.713,116.981,407.041z
			 M151.114,441.174c-3.337,3.337-8.738,3.337-12.066,0c-3.336-3.328-3.336-8.738,0-12.066c3.328-3.336,8.73-3.336,12.066,0
			C154.451,432.436,154.451,437.846,151.114,441.174z M202.314,466.774c-3.337,3.337-8.738,3.337-12.066,0
			c-3.337-3.328-3.337-8.738,0-12.066c3.328-3.337,8.73-3.337,12.066,0C205.651,458.036,205.651,463.446,202.314,466.774z
			 M262.047,475.376c-3.337,3.328-8.738,3.328-12.066,0c-3.337-3.337-3.337-8.738,0-12.066c3.328-3.336,8.73-3.336,12.066,0
			C265.384,466.638,265.384,472.039,262.047,475.376z M321.781,466.774c-3.337,3.337-8.738,3.337-12.066,0
			c-3.337-3.328-3.337-8.738,0-12.066c3.328-3.337,8.73-3.337,12.066,0C325.117,458.036,325.117,463.446,321.781,466.774z
			 M372.981,441.174c-3.337,3.337-8.738,3.337-12.066,0c-3.337-3.328-3.337-8.738,0-12.066c3.328-3.336,8.73-3.336,12.066,0
			C376.317,432.436,376.317,437.846,372.981,441.174z M407.114,407.041c-3.337,3.337-8.738,3.337-12.066,0
			c-3.336-3.328-3.336-8.738,0-12.066c3.328-3.337,8.73-3.337,12.066,0C410.451,398.303,410.451,403.713,407.114,407.041z
			 M415.647,82.774c-3.336,3.337-8.738,3.337-12.066,0c-3.336-3.328-3.336-8.738,0-12.066c3.328-3.336,8.73-3.336,12.066,0
			C418.984,74.036,418.984,79.446,415.647,82.774z"/>
	</g>
</g>
</svg>