<?xml version="1.0" encoding="UTF-8"?>
<svg id="Layer_2" data-name="Layer 2" xmlns="http://www.w3.org/2000/svg" viewBox="0 0 2927.56 377.07">
  <defs>
    <style>
      .cls-1 {
        fill: #2bcec3;
      }
    </style>
  </defs>
  <g id="Layer_1-2" data-name="Layer 1">
    <path id="path6" class="cls-1" d="m0,263.05c2.96-1.23,5.84-3.45,8.63-3.37,28.19.9,56.3,2.47,84.49,3.37,48.58,1.56,97.15,2.22,145.64,4.36,66.16,2.88,132.25,6.41,198.41,10.19,45.12,2.63,90.25,6.16,135.37,9.37,47.75,3.37,95.42,6.9,143.18,10.19,13.73.9,27.53,1.31,41.34,1.48,76.19.99,152.38,2.38,228.57,2.47,39.37,0,78.74-1.64,118.03-3.86,130.93-7.4,261.86-14.3,391.56-35.34,32.96-5.34,65.59-12.41,98.38-18.66.49-1.4.9-2.88,1.4-4.27-4.77-3.7-9.37-7.64-14.38-10.93-20.79-13.73-36-32.05-47.51-54.16-18.74-35.92-12.08-64.11,16.85-90,14.96-13.4,32.79-24.49,51.12-32.96,61.97-28.6,127.31-44.38,195.45-49.89,25.89-2.05,51.04-1.23,76.03,4.44,12,2.71,23.92,7.32,34.93,12.9,26.3,13.48,34.11,31.31,28.11,60.16-9.21,43.64-32.71,78.66-66.9,106.27-17.34,13.97-36.33,25.89-54.66,38.55-5.84,4.03-11.92,7.56-20.14,12.74,19.81,8.22,38.79,7.89,56.88,9.62,75.2,7.23,150.66,10.6,226.19,8.05,139.23-4.68,277.15-21.53,413.83-48.08,125.18-24.33,248.22-57.12,370.02-94.52,17.51-5.34,35.67-8.63,53.59-12.58,2.79-.58,5.92.41,13.15,1.07-5.59,3.95-7.64,6.33-10.11,7.15-117.12,38.71-232.35,83.18-352.6,112.52-107.83,26.3-216.16,48.99-326.38,62.46-67.07,8.22-134.22,14.96-201.86,15.7-32.14.33-64.36,3.37-96.41,2.22-74.71-2.71-149.42-5.75-222.98-21.04-7.89-1.64-17.18-.99-24.82,1.64-97.31,33.62-197.59,53.26-299.67,64.36-69.78,7.56-139.72,13.89-209.59,19.89-154.03,13.32-308.46,14.88-462.82,9.95-68.79-2.14-137.42-9.7-206.22-13.73-76.11-4.52-151.64-14.3-226.27-29.42-88.11-17.84-175.81-37.56-263.59-56.79-8.55-1.81-19.48.9-24.25-11.51h0Zm1574.45-123.37c6.82,19.56,11.1,25.07,25.56,36.99,20.71,17.01,45.37,25.89,70.11,34.68,8.55,3.04,16.44,3.21,24.66-.58,25.64-11.67,51.78-22.27,76.85-35.18,31.56-16.27,61.31-35.51,85.97-61.64,11.51-12.25,23.34-24.74,26.55-44.22-7.32-2.14-13.97-4.68-20.88-6.08-34.52-7.23-69.12-5.34-103.56.16-54.16,8.55-106.19,23.75-153.62,51.86-11.59,6.82-21.62,16.27-31.64,24h0Z"/>
  </g>
</svg>