<?xml version="1.0" encoding="UTF-8"?>
<svg id="Layer_2" data-name="Layer 2" xmlns="http://www.w3.org/2000/svg" viewBox="0 0 3159.06 173.04">
  <defs>
    <style>
      .cls-1 {
        fill: #2bcec3;
      }
    </style>
  </defs>
  <g id="Layer_1-2" data-name="Layer 1">
    <path id="path10" class="cls-1" d="m1.77,173.04c-4.93-11.18,1.4-14.55,7.07-17.51,12.25-6.33,24.66-12.49,37.15-18.25,80.96-37.48,166.19-61.31,253.15-79.97,106.6-22.85,214.19-39.45,322.76-49.48C722.18-1.45,822.7-.71,923.14,1.18c76.03,1.4,151.97,6.74,227.92,11.59,66.74,4.27,133.4,9.78,199.97,15.62,77.67,6.82,155.26,14.79,232.93,21.86,53.51,4.85,107.18,9.2,160.77,13.48,60.74,4.93,121.48,11.01,182.3,13.97,96.41,4.6,192.98,8.63,289.56,4.52,36.08-1.56,72.16-1.89,108.16-4.27,60.16-4.03,120.25-9.29,180.33-13.89,27.45-2.05,54.99-3.7,82.44-5.51,54.9-3.7,109.89-7.15,164.79-11.01,58.85-4.11,117.7-8.47,176.55-12.9,67.31-5.1,134.63-10.52,201.94-15.7,9.21-.74,18.82-6.49,28.27,1.23-3.95,8.79-12.49,7.4-18.74,8.55-45.12,8.63-90.33,16.6-135.53,24.74-98.79,17.75-197.34,36.9-296.46,52.85-84.16,13.56-168.74,24.82-253.39,34.52-62.55,7.15-125.51,11.92-188.38,14.71-70.85,3.12-142.03,5.67-212.87,3.29-92.46-3.12-184.77-10.68-276.98-17.67-60.16-4.52-120.25-10.85-180.24-17.18-65.26-6.82-130.36-14.79-195.62-21.78-54.16-5.84-108.33-11.1-162.57-16.52-65.26-6.49-130.52-13.23-195.86-18.99-45.7-4.03-91.56-7.32-137.42-9.45-62.96-3.04-126-6.99-188.96-6.41-89.18.74-178.19,6.57-266.88,17.34-77.51,9.45-154.77,20.22-231.29,35.67-70.44,14.22-138.41,36.25-204.49,64.36-3.37,1.81-6.99,3.12-11.59,4.85h0Z"/>
  </g>
</svg>